<?xml version="1.0" encoding="UTF-8" standalone="no"?>
<!DOCTYPE svg PUBLIC "-//W3C//DTD SVG 1.1//EN"
 "http://www.w3.org/Graphics/SVG/1.1/DTD/svg11.dtd">
<!-- Generated by graphviz version 7.0.5 (20221223.1930)
 -->
<!-- Pages: 1 -->
<svg width="463pt" height="144pt"
 viewBox="0.00 0.00 463.00 144.00" xmlns="http://www.w3.org/2000/svg" xmlns:xlink="http://www.w3.org/1999/xlink">
<g id="graph0" class="graph" transform="scale(1 1) rotate(0) translate(4 140)">
<polygon fill="white" stroke="none" points="-4,4 -4,-140 459,-140 459,4 -4,4"/>
<!-- ClientsMap -->
<g id="node1" class="node">
<title>ClientsMap</title>
<polygon fill="none" stroke="black" points="8.5,-66 8.5,-94 211.5,-94 211.5,-66 8.5,-66"/>
<text text-anchor="start" x="60" y="-77.2" font-family="Helvetica,sans-Serif" font-weight="bold" font-size="16.00">ClientsMap</text>
<polygon fill="none" stroke="black" points="8.5,-41 8.5,-66 211.5,-66 211.5,-41 8.5,-41"/>
<text text-anchor="start" x="13.5" y="-50.8" font-family="Helvetica,sans-Serif" text-decoration="underline" font-size="14.00">keys</text>
<text text-anchor="start" x="45.5" y="-50.8" font-family="Helvetica,sans-Serif" font-size="14.00"> [pair&lt;uint32,uint16&gt;]</text>
</g>
<!-- Client -->
<g id="node2" class="node">
<title>Client</title>
<polygon fill="none" stroke="black" points="300.5,-104 300.5,-132 447.5,-132 447.5,-104 300.5,-104"/>
<text text-anchor="start" x="348" y="-115.2" font-family="Helvetica,sans-Serif" font-weight="bold" font-size="16.00">Client</text>
<polygon fill="none" stroke="black" points="300.5,-79 300.5,-104 447.5,-104 447.5,-79 300.5,-79"/>
<text text-anchor="start" x="305.5" y="-88.8" font-family="Helvetica,sans-Serif" font-style="italic" font-size="14.00">address</text>
<text text-anchor="start" x="361.5" y="-88.8" font-family="Helvetica,sans-Serif" font-size="14.00"> [uint32]</text>
<polygon fill="none" stroke="black" points="300.5,-54 300.5,-79 447.5,-79 447.5,-54 300.5,-54"/>
<text text-anchor="start" x="305.5" y="-63.8" font-family="Helvetica,sans-Serif" font-style="italic" font-size="14.00">port</text>
<text text-anchor="start" x="334.5" y="-63.8" font-family="Helvetica,sans-Serif" font-size="14.00"> [uint16]</text>
<polygon fill="none" stroke="black" points="300.5,-29 300.5,-54 447.5,-54 447.5,-29 300.5,-29"/>
<text text-anchor="start" x="305.5" y="-38.8" font-family="Helvetica,sans-Serif" font-size="14.00">file_descriptor</text>
<text text-anchor="start" x="404.5" y="-38.8" font-family="Helvetica,sans-Serif" font-size="14.00"> [int]</text>
<polygon fill="none" stroke="black" points="300.5,-4 300.5,-29 447.5,-29 447.5,-4 300.5,-4"/>
<text text-anchor="start" x="305.5" y="-13.8" font-family="Helvetica,sans-Serif" font-size="14.00">block_num</text>
<text text-anchor="start" x="381.5" y="-13.8" font-family="Helvetica,sans-Serif" font-size="14.00"> [uint16]</text>
</g>
<!-- ClientsMap&#45;&#45;Client -->
<g id="edge1" class="edge">
<title>ClientsMap&#45;&#45;Client</title>
<path fill="none" stroke="#7f7f7f" stroke-dasharray="5,2" d="M218.96,-68C243.45,-68 269.03,-68 292.13,-68"/>
<text text-anchor="start" x="261.13" y="-56.8" font-family="Times,serif" font-size="14.00">0..N</text>
<text text-anchor="start" x="218.96" y="-56.8" font-family="Times,serif" font-size="14.00">1</text>
</g>
</g>
</svg>
