<?xml version="1.0" encoding="UTF-8"?><svg xmlns:svg="http://www.w3.org/2000/svg" xmlns="http://www.w3.org/2000/svg" xmlns:xlink="http://www.w3.org/1999/xlink" version="1.0" width="681" height="46" viewBox="0 0 681 46" ><text x="60" y="8" font-family="Courier New, monospace" font-size="11" dominant-baseline="middle" text-anchor="middle" >0</text><text x="100" y="8" font-family="Courier New, monospace" font-size="11" dominant-baseline="middle" text-anchor="middle" >1</text><text x="140" y="8" font-family="Courier New, monospace" font-size="11" dominant-baseline="middle" text-anchor="middle" >2</text><text x="180" y="8" font-family="Courier New, monospace" font-size="11" dominant-baseline="middle" text-anchor="middle" >3</text><text x="220" y="8" font-family="Courier New, monospace" font-size="11" dominant-baseline="middle" text-anchor="middle" >4</text><text x="260" y="8" font-family="Courier New, monospace" font-size="11" dominant-baseline="middle" text-anchor="middle" >5</text><text x="300" y="8" font-family="Courier New, monospace" font-size="11" dominant-baseline="middle" text-anchor="middle" >6</text><text x="340" y="8" font-family="Courier New, monospace" font-size="11" dominant-baseline="middle" text-anchor="middle" >7</text><text x="380" y="8" font-family="Courier New, monospace" font-size="11" dominant-baseline="middle" text-anchor="middle" >8</text><text x="420" y="8" font-family="Courier New, monospace" font-size="11" dominant-baseline="middle" text-anchor="middle" >9</text><text x="460" y="8" font-family="Courier New, monospace" font-size="11" dominant-baseline="middle" text-anchor="middle" >a</text><text x="500" y="8" font-family="Courier New, monospace" font-size="11" dominant-baseline="middle" text-anchor="middle" >b</text><text x="540" y="8" font-family="Courier New, monospace" font-size="11" dominant-baseline="middle" text-anchor="middle" >c</text><text x="580" y="8" font-family="Courier New, monospace" font-size="11" dominant-baseline="middle" text-anchor="middle" >d</text><text x="620" y="8" font-family="Courier New, monospace" font-size="11" dominant-baseline="middle" text-anchor="middle" >e</text><text x="660" y="8" font-family="Courier New, monospace" font-size="11" dominant-baseline="middle" text-anchor="middle" >f</text><line x1="40" y1="15" x2="120" y2="15" stroke="#000000" stroke-width="1" /><line x1="40" y1="45" x2="120" y2="45" stroke="#000000" stroke-width="1" /><line x1="120" y1="15" x2="120" y2="45" stroke="#000000" stroke-width="1" /><line x1="40" y1="15" x2="40" y2="45" stroke="#000000" stroke-width="1" /><text font-size="18" font-family="Palatino, Georgia, Times New Roman, serif" x="80" y="31" text-anchor="middle" dominant-baseline="middle" >opcode</text><line x1="120" y1="15" x2="320" y2="15" stroke="#000000" stroke-width="1" /><line x1="120" y1="45" x2="320" y2="45" stroke="#000000" stroke-width="1" /><line x1="120" y1="15" x2="120" y2="45" stroke="#000000" stroke-width="1" /><text font-size="18" font-family="Palatino, Georgia, Times New Roman, serif" x="220" y="31" text-anchor="middle" dominant-baseline="middle" >filename</text><line x1="320" y1="15" x2="342.5" y2="15" stroke="#000000" stroke-width="1" /><line stroke-dasharray="1,3" x1="342.5" y1="15" x2="332.5" y2="45" stroke="#000000" stroke-width="1" /><line x1="332.5" y1="45" x2="320" y2="45" stroke="#000000" stroke-width="1" /><line x1="360" y1="15" x2="347.5" y2="15" stroke="#000000" stroke-width="1" /><line stroke-dasharray="1,3" x1="347.5" y1="15" x2="337.5" y2="45" stroke="#000000" stroke-width="1" /><line x1="337.5" y1="45" x2="360" y2="45" stroke="#000000" stroke-width="1" /><line x1="360" y1="15" x2="400" y2="15" stroke="#000000" stroke-width="1" /><line x1="360" y1="45" x2="400" y2="45" stroke="#000000" stroke-width="1" /><line x1="400" y1="15" x2="400" y2="45" stroke="#000000" stroke-width="1" /><line x1="360" y1="15" x2="360" y2="45" stroke="#000000" stroke-width="1" /><text font-size="18" font-family="Palatino, Georgia, Times New Roman, serif" x="380" y="31" text-anchor="middle" dominant-baseline="middle" >0</text><line x1="400" y1="15" x2="600" y2="15" stroke="#000000" stroke-width="1" /><line x1="400" y1="45" x2="600" y2="45" stroke="#000000" stroke-width="1" /><line x1="400" y1="15" x2="400" y2="45" stroke="#000000" stroke-width="1" /><text font-size="18" font-family="Palatino, Georgia, Times New Roman, serif" x="500" y="31" text-anchor="middle" dominant-baseline="middle" >mode</text><line x1="600" y1="15" x2="622.5" y2="15" stroke="#000000" stroke-width="1" /><line stroke-dasharray="1,3" x1="622.5" y1="15" x2="612.5" y2="45" stroke="#000000" stroke-width="1" /><line x1="612.5" y1="45" x2="600" y2="45" stroke="#000000" stroke-width="1" /><line x1="640" y1="15" x2="627.5" y2="15" stroke="#000000" stroke-width="1" /><line stroke-dasharray="1,3" x1="627.5" y1="15" x2="617.5" y2="45" stroke="#000000" stroke-width="1" /><line x1="617.5" y1="45" x2="640" y2="45" stroke="#000000" stroke-width="1" /><line x1="640" y1="15" x2="680" y2="15" stroke="#000000" stroke-width="1" /><line x1="640" y1="45" x2="680" y2="45" stroke="#000000" stroke-width="1" /><line x1="680" y1="15" x2="680" y2="45" stroke="#000000" stroke-width="1" /><line x1="640" y1="15" x2="640" y2="45" stroke="#000000" stroke-width="1" /><text font-size="18" font-family="Palatino, Georgia, Times New Roman, serif" x="660" y="31" text-anchor="middle" dominant-baseline="middle" >0</text></svg>