<?xml version="1.0" encoding="UTF-8"?><svg xmlns:svg="http://www.w3.org/2000/svg" xmlns="http://www.w3.org/2000/svg" xmlns:xlink="http://www.w3.org/1999/xlink" version="1.0" width="361" height="37" viewBox="0 0 361 37" ><text font-size="11" font-family="Palatino, Georgia, Times New Roman, serif" font-style="italic" x="80" y="9" text-anchor="middle" dominant-baseline="middle" >uint16</text><text font-size="11" font-family="Palatino, Georgia, Times New Roman, serif" font-style="italic" x="160" y="9" text-anchor="middle" dominant-baseline="middle" >string</text><text font-size="11" font-family="Palatino, Georgia, Times New Roman, serif" font-style="italic" x="220" y="9" text-anchor="middle" dominant-baseline="middle" >byte</text><text font-size="11" font-family="Palatino, Georgia, Times New Roman, serif" font-style="italic" x="280" y="9" text-anchor="middle" dominant-baseline="middle" >string</text><text font-size="11" font-family="Palatino, Georgia, Times New Roman, serif" font-style="italic" x="340" y="9" text-anchor="middle" dominant-baseline="middle" >byte</text><line x1="40" y1="16" x2="120" y2="16" stroke="#000000" stroke-width="1" /><line x1="40" y1="36" x2="120" y2="36" stroke="#000000" stroke-width="1" /><line x1="120" y1="16" x2="120" y2="36" stroke="#000000" stroke-width="1" /><line x1="40" y1="16" x2="40" y2="36" stroke="#000000" stroke-width="1" /><text font-size="12" x="80" y="27" text-anchor="middle" dominant-baseline="middle" >opcode</text><line x1="120" y1="16" x2="200" y2="16" stroke="#000000" stroke-width="1" /><line x1="120" y1="36" x2="200" y2="36" stroke="#000000" stroke-width="1" /><line stroke-dasharray="1,3" x1="200" y1="16" x2="200" y2="36" stroke="#000000" stroke-width="1" /><line x1="120" y1="16" x2="120" y2="36" stroke="#000000" stroke-width="1" /><text font-size="12" x="160" y="27" text-anchor="middle" dominant-baseline="middle" >filename</text><line x1="200" y1="16" x2="240" y2="16" stroke="#000000" stroke-width="1" /><line x1="200" y1="36" x2="240" y2="36" stroke="#000000" stroke-width="1" /><line x1="240" y1="16" x2="240" y2="36" stroke="#000000" stroke-width="1" /><line stroke-dasharray="1,3" x1="200" y1="16" x2="200" y2="36" stroke="#000000" stroke-width="1" /><text font-size="12" x="220" y="27" text-anchor="middle" dominant-baseline="middle" >0</text><line x1="240" y1="16" x2="320" y2="16" stroke="#000000" stroke-width="1" /><line x1="240" y1="36" x2="320" y2="36" stroke="#000000" stroke-width="1" /><line stroke-dasharray="1,3" x1="320" y1="16" x2="320" y2="36" stroke="#000000" stroke-width="1" /><line x1="240" y1="16" x2="240" y2="36" stroke="#000000" stroke-width="1" /><text font-size="12" x="280" y="27" text-anchor="middle" dominant-baseline="middle" >mode</text><line x1="320" y1="16" x2="360" y2="16" stroke="#000000" stroke-width="1" /><line x1="320" y1="36" x2="360" y2="36" stroke="#000000" stroke-width="1" /><line x1="360" y1="16" x2="360" y2="36" stroke="#000000" stroke-width="1" /><line stroke-dasharray="1,3" x1="320" y1="16" x2="320" y2="36" stroke="#000000" stroke-width="1" /><text font-size="12" x="340" y="27" text-anchor="middle" dominant-baseline="middle" >0</text></svg>